<svg width="200" height="200" viewBox="0 0 200 200" fill="none" xmlns="http://www.w3.org/2000/svg">
<g clip-path="url(#clip0_5966_13728)">
<path d="M51.4378 141.327C53.8674 142.971 54.1854 144.166 52.9164 146.886C50.2617 152.579 47.1993 159.326 44.6146 166.225C43.9259 168.062 43.8766 171.651 45.3663 173.092C46.5852 174.272 48.6532 174.433 50.6531 174.589C51.2444 174.635 51.8026 174.679 52.3284 174.747C52.4134 174.759 52.499 174.764 52.5848 174.764C53.3121 174.696 54.0126 174.457 54.6281 174.068L54.8877 173.934C57.0795 172.814 59.2734 171.698 61.4695 170.585C67.7377 167.402 74.2188 164.108 80.5299 160.749L80.589 160.718C88.1833 156.679 95.3501 152.861 104.151 154.539C104.518 154.597 104.891 154.611 105.262 154.581C105.38 154.575 105.499 154.57 105.615 154.569C126.523 154.381 142.634 150.094 156.318 141.079C177.275 127.269 186.684 107.506 182.134 86.8574C177.922 67.7396 169.615 55.8441 155.203 48.2887C140.551 40.6089 124.039 36.1961 108.711 35.8633C108.705 35.8642 108.699 35.8642 108.694 35.8633C89.7742 35.937 73.9676 39.0163 58.9517 45.556C40.7487 53.4821 30.7676 64.8694 28.4394 80.3682C27.4357 86.673 27.316 93.0842 28.0837 99.4212C30.6041 118.692 38.2438 132.399 51.4378 141.327Z" fill="#FBB130"/>
</g>
<g clip-path="url(#clip1_5966_13728)">
<path d="M40.4779 130.472C42.9074 132.116 43.2254 133.311 41.9565 136.031C39.3017 141.723 36.2393 148.47 33.6547 155.37C32.966 157.207 32.9166 160.796 34.4063 162.236C35.6253 163.416 37.6933 163.578 39.6931 163.734C40.2844 163.78 40.8426 163.823 41.3684 163.892C41.4534 163.904 41.5391 163.909 41.6248 163.909C42.3522 163.84 43.0527 163.602 43.6681 163.213L43.9278 163.078C46.1195 161.959 48.3134 160.842 50.5095 159.729C56.7777 156.546 63.2589 153.253 69.5699 149.894L69.629 149.863C77.2233 145.823 84.3902 142.005 93.1911 143.683C93.5585 143.741 93.9311 143.756 94.3024 143.726C94.4199 143.72 94.5386 143.715 94.6548 143.714C115.563 143.526 131.674 139.239 145.358 130.223C166.315 116.413 175.724 96.6503 171.174 76.002C166.962 56.8841 158.655 44.9886 144.243 37.4332C129.591 29.7534 113.079 25.3406 97.751 25.0078C97.7451 25.0088 97.7393 25.0088 97.7341 25.0078C78.8142 25.0816 63.0077 28.1608 47.9917 34.7005C29.7887 42.6266 19.8077 54.0139 17.4794 69.5127C16.4758 75.8176 16.3561 82.2287 17.1237 88.5657C19.6441 107.836 27.2839 121.544 40.4779 130.472ZM46.8863 146.053C48.152 141.593 49.3463 137.38 50.836 133.344C53.1727 127.019 49.7241 123.465 46.4611 121.075C41.4982 117.442 36.4782 113.259 33.3717 107.314C25.3489 91.9598 24.2572 77.5767 30.0315 63.3423C33.1633 55.6227 39.5211 49.8911 50.0396 45.3038C64.5577 38.9724 79.0077 35.807 93.2937 35.807C107.517 35.8696 121.562 38.9446 134.482 44.8241C149.398 51.4626 157.669 62.4115 160.514 79.2819C162.851 93.1262 158.968 104.657 148.3 115.569C138.8 125.285 125.991 131.003 107.992 133.562C98.9193 134.852 88.1886 135.921 77.3888 134.066C76.0407 133.84 74.5329 134.674 73.3132 135.348C66.0026 139.407 58.7607 143.478 51.0943 147.788L45.4869 150.939C45.9763 149.261 46.4371 147.637 46.8863 146.054V146.053Z" fill="#111827"/>
<path d="M65.5148 93.7936H65.605C66.6237 93.7904 67.6314 93.5858 68.5692 93.1927C69.5068 92.799 70.3556 92.2252 71.0658 91.5038C71.6759 90.8818 72.1521 90.1438 72.4657 89.3352C72.7793 88.5264 72.9238 87.6634 72.8904 86.7979C72.7754 85.034 72.0047 83.3745 70.7263 82.1378C69.448 80.9011 67.7522 80.1743 65.9646 80.0977C65.015 80.1036 64.0759 80.2961 63.2019 80.6631C62.3279 81.0302 61.5364 81.5646 60.8732 82.2361C60.1502 82.9186 59.5708 83.7356 59.1685 84.64C58.7661 85.5445 58.5487 86.519 58.5287 87.5067C58.5233 88.3094 58.6803 89.1049 58.9904 89.8469C59.3005 90.5888 59.7574 91.2614 60.3345 91.827C61.7298 93.1338 63.5927 93.841 65.5148 93.7936Z" fill="#111827"/>
<path d="M96.2563 95.5729H96.3212C98.0828 95.5588 99.7672 94.858 101.008 93.623C102.314 92.3694 103.066 90.6574 103.102 88.8593C103.116 87.0639 102.11 84.941 100.476 83.3219C99.368 82.0936 97.8225 81.3357 96.1622 81.2061H96.1414C92.7888 81.2253 89.4506 84.8569 89.4019 88.5375C89.385 89.4577 89.5538 90.372 89.8985 91.2268C90.2425 92.0822 90.7553 92.8612 91.4076 93.5185C92.0379 94.161 92.7908 94.6733 93.6229 95.026C94.4557 95.3787 95.3501 95.5646 96.2563 95.5729Z" fill="#111827"/>
<path d="M125.52 94.8283H125.563C127.233 94.7648 128.823 94.1005 130.032 92.9611C131.242 91.821 131.989 90.284 132.132 88.6389C132.087 87.0129 131.396 85.4696 130.209 84.3427C128.612 82.5857 126.396 81.4975 124.015 81.3007C123.41 81.2889 122.811 81.3991 122.251 81.6238C121.691 81.8484 121.185 82.1829 120.76 82.6075C120.092 83.2858 119.567 84.0887 119.217 84.9694C118.866 85.8502 118.696 86.791 118.717 87.7372C118.676 89.5665 119.368 91.3369 120.643 92.6649C121.916 93.9922 123.669 94.7706 125.52 94.8283Z" fill="#111827"/>
</g>
<defs>
<clipPath id="clip0_5966_13728">
<rect width="156.43" height="139.144" fill="white" transform="translate(26.96 35.8555)"/>
</clipPath>
<clipPath id="clip1_5966_13728">
<rect width="156.43" height="139.144" fill="white" transform="translate(16 25)"/>
</clipPath>
</defs>
</svg>
