<svg width="200" height="200" viewBox="0 0 200 200" fill="none" xmlns="http://www.w3.org/2000/svg">
<g clip-path="url(#clip0_5966_13538)">
<path d="M161.823 128.435L161.594 127.876C159.266 122.141 156.858 116.21 154.02 110.605C145.63 94.0383 136.983 77.2543 128.62 61.0233C126.164 56.2567 123.709 51.4902 121.256 46.7236C120.446 45.0911 119.538 43.5095 118.536 41.9877C116.092 38.4019 112.886 36.6603 108.996 36.8158C105.584 36.6715 102.635 37.9553 99.9091 39.2857L97.6077 40.4097C86.5161 45.821 75.0471 51.4191 63.8375 57.0662C59.9133 59.0435 55.8374 61.3778 52.613 65.0364C51.1773 66.5499 50.1639 68.4135 49.6737 70.4412C49.1835 72.4689 49.2339 74.5897 49.8197 76.5919L49.9328 77.0391C50.1098 77.8396 50.352 78.6242 50.6568 79.3853C51.6968 81.7874 52.748 84.1844 53.8104 86.5762C55.1321 89.5724 56.4987 92.6718 57.8073 95.7308C61.631 104.867 65.9498 113.787 70.7448 122.452C73.8174 127.918 76.3042 132.447 78.5713 136.707C80.1649 139.702 81.7343 142.71 83.3036 145.718C85.9676 150.825 88.7218 156.105 91.5588 161.232C93.1685 164.009 95.1079 166.582 97.3352 168.894C98.2919 169.967 99.4687 170.822 100.785 171.399C102.102 171.976 103.528 172.263 104.966 172.239C105.831 172.236 106.694 172.153 107.545 171.99C112.49 171.057 116.984 168.965 120.727 167.038C129.531 162.508 138.152 157.9 146.354 153.339C149.979 151.324 153.525 149.033 156.956 146.818C157.849 146.242 158.744 145.666 159.639 145.092C162.911 143 164.235 139.814 163.574 135.624C163.264 133.169 162.677 130.758 161.823 128.435Z" fill="#00CEB3"/>
<path d="M72.3819 146.571C71.3243 146.375 70.2487 146.294 69.1737 146.328C68.0329 146.358 66.8723 146.442 65.7527 146.524C63.635 146.737 61.5033 146.772 59.3796 146.63C49.0825 145.627 42.2561 140.874 39.0902 132.502C34.1764 119.502 36.1723 107.436 45.0295 96.6415C45.1459 96.4997 45.2678 96.3604 45.3897 96.2204C45.792 95.7998 46.1346 95.326 46.4079 94.8121C46.5947 94.483 46.6839 94.1075 46.6653 93.7296C46.6467 93.3516 46.521 92.9867 46.3028 92.6776C46.0846 92.3684 45.7829 92.1277 45.433 91.9835C45.0831 91.8393 44.6995 91.7976 44.3268 91.8633C43.5195 91.929 42.7501 92.2337 42.1168 92.7385C41.7486 93.065 41.3705 93.3871 40.9935 93.7106C39.5312 94.8588 38.217 96.184 37.0812 97.656C30.4183 107.129 28.2051 117.613 30.5028 128.818C33.002 141.009 40.1823 148.918 51.8435 152.336C54.5995 153.07 57.4045 153.605 60.2369 153.938C61.5014 154.117 62.8088 154.302 64.0814 154.521L64.3844 154.574L64.4571 154.23C64.8222 154.233 65.1885 154.244 65.5542 154.255C66.6038 154.312 67.6561 154.289 68.7021 154.186C70.2014 154.011 71.6702 153.634 73.0686 153.067C73.7871 152.78 74.3856 152.256 74.7644 151.582C75.1431 150.908 75.2791 150.124 75.1498 149.361C74.9961 147.859 74.0389 146.895 72.3819 146.571Z" fill="#00CEB3"/>
<path d="M142.878 36.1639C141.763 36.0765 140.644 36.2716 139.625 36.7312C138.791 37.161 137.876 38.2687 137.897 39.1091C137.919 39.9177 139.2 40.8606 140.02 41.077C141.031 41.3205 142.056 41.5005 143.09 41.6157C143.946 41.7296 144.831 41.8464 145.677 42.0393C152.308 43.5532 159.246 45.5884 165.057 50.1874C168.768 52.9948 171.303 57.0818 172.169 61.6539C173.318 67.4864 172.797 72.5109 170.575 77.0173C169.47 79.2564 168.222 81.4764 167.015 83.6236C166.371 84.7693 165.726 85.915 165.099 87.07C164.917 87.4047 164.725 87.7374 164.539 88.0701C163.897 89.1152 163.363 90.2219 162.942 91.3736C162.493 92.7507 161.878 94.6372 163.899 96.482L164.091 96.6574L164.302 96.5057C164.799 96.1486 165.312 95.8184 165.81 95.4993C166.896 94.877 167.89 94.1053 168.761 93.2067C172.131 89.3702 176.252 84.1379 178.225 77.6778C181.983 65.3716 179.669 55.072 171.347 47.0631C164.429 40.404 155.116 36.84 142.878 36.1639Z" fill="#00CEB3"/>
<path d="M148.374 79.4914C148.181 79.7079 148.065 79.9817 148.042 80.2707C148.05 80.5102 148.042 80.7714 148.036 81.0364C148.011 81.9433 147.986 82.8812 148.5 83.3782C149.026 83.777 149.679 83.9729 150.338 83.9299C150.808 83.9348 151.275 83.8571 151.718 83.7004C153.96 82.8483 155.482 81.0457 156.24 78.3431C157.422 74.1391 156.681 69.1582 154.265 65.0182C152.956 62.8036 151.211 60.8777 149.136 59.3569C147.061 57.836 144.699 56.7519 142.193 56.1702C140.591 55.8683 138.949 55.8341 137.336 56.0688C136.966 56.0727 136.603 56.1605 136.273 56.3256C135.943 56.4907 135.655 56.7287 135.43 57.0217C135.007 57.6481 134.963 58.5394 135.299 59.6714L135.355 59.8581L135.548 59.8935C135.989 59.9744 136.41 60.0459 136.818 60.1149C137.639 60.2542 138.416 60.3867 139.168 60.5652C143.936 61.6985 147.636 64.5846 149.318 68.482C150.054 70.213 150.366 72.0946 150.227 73.9704C150.089 75.8461 149.505 77.6617 148.524 79.2662C148.481 79.3415 148.427 79.4161 148.374 79.4914Z" fill="#00CEB3"/>
<path d="M55.9932 111.218C56.4647 110.351 57.0506 109.272 55.7164 108.32C54.9862 107.799 53.8298 107.493 52.4732 108.998C51.5701 109.943 50.834 111.034 50.2962 112.225C47.4351 119.153 48.2009 125.763 52.5791 131.871C55.2095 135.541 58.7897 137.387 63.5262 137.513H63.5629L63.5996 137.505C63.7676 137.47 63.9815 137.435 64.2279 137.394C65.1571 137.258 66.0741 137.049 66.9702 136.769C67.311 136.665 67.6266 136.493 67.8978 136.261C68.1689 136.03 68.3897 135.746 68.5463 135.426C68.6576 135.176 68.7144 134.905 68.7129 134.631C68.7114 134.357 68.6517 134.087 68.5377 133.837C68.0359 132.996 67.2425 132.369 66.3084 132.075C65.8413 131.94 65.3514 131.902 64.869 131.963C64.4991 132.007 64.1248 131.992 63.7594 131.92L63.2059 131.77C61.6869 131.43 60.215 130.906 58.8232 130.209C56.4851 128.897 55.4277 126.449 54.7018 124.226C54.0035 122.142 53.7441 119.936 53.9398 117.747C54.1356 115.558 54.7825 113.433 55.8395 111.506L55.9932 111.218Z" fill="#00CEB3"/>
<path d="M131.056 142.763C129.784 142.735 128.551 143.208 127.625 144.08C127.278 144.374 126.993 144.733 126.787 145.138C126.58 145.542 126.456 145.984 126.422 146.436C126.405 146.859 126.474 147.281 126.624 147.677C126.774 148.072 127.003 148.433 127.297 148.738C127.696 149.127 128.168 149.434 128.686 149.64C129.204 149.846 129.757 149.946 130.315 149.936H130.4C131.458 149.957 132.481 149.558 133.244 148.825C133.595 148.475 133.871 148.057 134.057 147.598C134.243 147.138 134.334 146.646 134.325 146.15C134.327 145.271 133.987 144.427 133.376 143.794C132.766 143.162 131.934 142.792 131.056 142.763Z" fill="#00CEB3"/>
</g>
<g clip-path="url(#clip1_5966_13538)">
<path d="M152.347 119.905L152.118 119.345C149.789 113.61 147.381 107.68 144.543 102.075C136.154 85.508 127.506 68.724 119.143 52.493C116.688 47.7264 114.232 42.9599 111.779 38.1933C110.969 36.5608 110.061 34.9792 109.059 33.4574C106.616 29.8716 103.409 28.13 99.5191 28.2855C96.1069 28.1412 93.158 29.425 90.4324 30.7555L88.131 31.8794C77.0394 37.2908 65.5704 42.8888 54.3608 48.5359C50.4366 50.5132 46.3607 52.8475 43.1363 56.5061C41.7007 58.0196 40.6872 59.8833 40.1971 61.911C39.7069 63.9387 39.7572 66.0594 40.343 68.0616L40.4561 68.5088C40.6331 69.3093 40.8753 70.094 41.1801 70.855C42.2201 73.2571 43.2713 75.6541 44.3337 78.0459C45.6554 81.0421 47.022 84.1415 48.3307 87.2005C52.1543 96.3363 56.4731 105.256 61.2681 113.922C64.3407 119.388 66.8275 123.917 69.0947 128.176C70.6882 131.171 72.2576 134.18 73.8269 137.188C76.4909 142.295 79.2451 147.575 82.0821 152.702C83.6918 155.479 85.6312 158.051 87.8586 160.363C88.8152 161.437 89.992 162.292 91.3088 162.869C92.6255 163.446 94.0518 163.733 95.4892 163.709C96.3544 163.706 97.2178 163.623 98.068 163.46C103.014 162.527 107.507 160.434 111.251 158.508C120.054 153.978 128.675 149.37 136.877 144.809C140.502 142.793 144.049 140.503 147.479 138.288C148.373 137.712 149.267 137.136 150.162 136.562C153.434 134.47 154.758 131.284 154.097 127.094C153.788 124.639 153.201 122.228 152.347 119.905ZM148.541 129.445C148.612 130.73 148.016 131.753 146.717 132.572C145.539 133.318 144.366 134.07 143.194 134.823C140.043 136.849 136.787 138.942 133.471 140.794C124.305 145.923 116.801 149.931 109.864 153.409C106.727 154.882 103.488 156.13 100.173 157.141C99.5515 157.348 98.9295 157.556 98.3075 157.763C95.738 158.629 93.3999 157.879 91.5458 155.595C90.507 154.316 89.5031 152.991 88.4407 151.588C88.0165 151.028 87.5805 150.452 87.1258 149.857C93.0889 146.473 99.0116 142.979 104.742 139.599C118.374 131.558 131.255 123.96 145.242 117.318C146.825 121.046 148.301 125.089 148.541 129.443V129.445ZM142.925 112.058C129.147 118.655 115.959 126.613 103.204 134.305C97.2669 137.887 91.1303 141.588 84.9918 145.12C84.7903 144.767 84.6012 144.441 84.4214 144.132C83.9817 143.372 83.6016 142.717 83.2595 142.048L81.4756 138.559C77.965 131.697 74.3364 124.602 70.8009 117.608L68.372 112.802C62.3299 100.851 56.0826 88.4936 50.0349 76.2912C49.0871 74.262 48.2744 72.1723 47.6022 70.0358C47.336 69.2515 47.0697 68.4671 46.7936 67.6896C45.664 64.5423 46.469 61.8187 49.1206 59.8121C51.7867 57.7334 54.6248 55.8856 57.6046 54.2888C66.4487 49.7046 75.5119 45.1777 84.2771 40.8001L88.358 38.7612C91.5818 37.1496 94.0754 36.0001 96.444 35.0342C97.5132 34.5618 98.6645 34.3008 99.8333 34.2654C101.98 34.2654 103.652 35.4198 105.051 37.7921C108.281 43.2731 111.271 48.72 113.935 53.9796C120.693 67.322 127.494 80.9251 134.069 94.0797L139.822 105.583C140.553 107.043 141.249 108.514 141.985 110.071C142.288 110.721 142.601 111.381 142.925 112.058Z" fill="#111827"/>
<path d="M62.9052 138.041C61.8477 137.844 60.772 137.763 59.697 137.798C58.5562 137.828 57.3956 137.912 56.276 137.994C54.1583 138.206 52.0266 138.242 49.903 138.1C39.6058 137.097 32.7794 132.343 29.6135 123.972C24.6997 110.972 26.6956 98.9054 35.5529 88.1112C35.6692 87.9694 35.7911 87.8301 35.9131 87.6901C36.3153 87.2695 36.6579 86.7957 36.9312 86.2819C37.118 85.9528 37.2072 85.5773 37.1886 85.1993C37.17 84.8214 37.0443 84.4564 36.8262 84.1473C36.608 83.8381 36.3062 83.5974 35.9563 83.4532C35.6064 83.309 35.2228 83.2673 34.8501 83.333C34.0428 83.3987 33.2734 83.7034 32.6401 84.2082C32.2719 84.5347 31.8938 84.8569 31.5168 85.1803C30.0545 86.3285 28.7403 87.6537 27.6045 89.1257C20.9416 98.5987 18.7285 109.083 21.0261 120.288C23.5253 132.479 30.7056 140.388 42.3668 143.805C45.1228 144.539 47.9278 145.074 50.7602 145.408C52.0247 145.587 53.3321 145.772 54.6047 145.991L54.9077 146.043L54.9804 145.699C55.3455 145.703 55.7118 145.714 56.0775 145.724C57.1271 145.782 58.1794 145.759 59.2254 145.656C60.7247 145.481 62.1935 145.104 63.5919 144.536C64.3104 144.25 64.9089 143.726 65.2877 143.052C65.6664 142.377 65.8024 141.594 65.6731 140.831C65.5194 139.329 64.5622 138.364 62.9052 138.041Z" fill="#111827"/>
<path d="M133.401 27.6336C132.286 27.5462 131.167 27.7413 130.149 28.2009C129.314 28.6307 128.399 29.7385 128.421 30.5788C128.442 31.3874 129.723 32.3303 130.544 32.5468C131.554 32.7903 132.579 32.9702 133.613 33.0855C134.47 33.1993 135.355 33.3162 136.201 33.509C142.832 35.0229 149.769 37.0581 155.58 41.6571C159.292 44.4645 161.826 48.5515 162.693 53.1237C163.842 58.9561 163.32 63.9806 161.098 68.487C159.993 70.7262 158.745 72.9461 157.538 75.0933C156.894 76.239 156.249 77.3847 155.622 78.5398C155.44 78.8744 155.249 79.2071 155.062 79.5399C154.421 80.585 153.886 81.6916 153.465 82.8433C153.016 84.2204 152.402 86.1069 154.423 87.9518L154.614 88.1272L154.825 87.9754C155.323 87.6184 155.836 87.2881 156.333 86.969C157.419 86.3468 158.413 85.5751 159.285 84.6764C162.654 80.8399 166.775 75.6076 168.748 69.1475C172.507 56.8413 170.193 46.5417 161.87 38.5329C154.952 31.8738 145.639 28.3098 133.401 27.6336Z" fill="#111827"/>
<path d="M138.897 70.9611C138.704 71.1777 138.588 71.4515 138.566 71.7404C138.574 71.9799 138.566 72.2411 138.559 72.5061C138.535 73.413 138.51 74.351 139.023 74.8479C139.55 75.2468 140.202 75.4426 140.861 75.3996C141.331 75.4046 141.798 75.3269 142.241 75.1701C144.483 74.318 146.005 72.5154 146.764 69.8129C147.945 65.6088 147.205 60.6279 144.788 56.4879C143.479 54.2733 141.734 52.3474 139.659 50.8266C137.584 49.3058 135.222 48.2217 132.716 47.6399C131.114 47.338 129.473 47.3038 127.859 47.5385C127.49 47.5424 127.127 47.6302 126.796 47.7954C126.467 47.9604 126.178 48.1984 125.953 48.4914C125.531 49.1178 125.486 50.0091 125.822 51.1411L125.878 51.3278L126.071 51.3633C126.512 51.4441 126.934 51.5156 127.341 51.5846C128.163 51.724 128.939 51.8564 129.692 52.0349C134.459 53.1682 138.159 56.0543 139.841 59.9517C140.577 61.6827 140.889 63.5643 140.751 65.4401C140.613 67.3159 140.029 69.1315 139.047 70.736C139.004 70.8112 138.951 70.8858 138.897 70.9611Z" fill="#111827"/>
<path d="M46.5165 102.688C46.988 101.821 47.5739 100.741 46.2398 99.7896C45.5095 99.2684 44.3531 98.963 42.9965 100.468C42.0934 101.412 41.3573 102.504 40.8196 103.695C37.9584 110.623 38.7242 117.233 43.1024 123.341C45.7328 127.011 49.313 128.857 54.0495 128.982H54.0862L54.1229 128.975C54.2909 128.94 54.5049 128.905 54.7512 128.864C55.6804 128.728 56.5974 128.519 57.4936 128.238C57.8343 128.135 58.1499 127.962 58.4211 127.731C58.6922 127.5 58.913 127.216 59.0696 126.896C59.1809 126.646 59.2377 126.375 59.2362 126.101C59.2347 125.827 59.175 125.556 59.061 125.307C58.5592 124.466 57.7659 123.838 56.8317 123.544C56.3646 123.409 55.8747 123.371 55.3923 123.433C55.0224 123.476 54.6481 123.462 54.2827 123.389L53.7292 123.24C52.2102 122.9 50.7384 122.376 49.3465 121.678C47.0084 120.367 45.951 117.918 45.2252 115.695C44.5268 113.612 44.2674 111.405 44.4632 109.217C44.659 107.028 45.3058 104.903 46.3629 102.976L46.5165 102.688Z" fill="#111827"/>
<path d="M121.579 134.233C120.307 134.205 119.074 134.677 118.148 135.55C117.801 135.844 117.517 136.203 117.31 136.607C117.104 137.012 116.979 137.453 116.945 137.906C116.928 138.329 116.997 138.751 117.147 139.146C117.298 139.542 117.527 139.903 117.82 140.208C118.219 140.597 118.691 140.904 119.209 141.109C119.727 141.315 120.281 141.416 120.838 141.406H120.923C121.981 141.427 123.004 141.027 123.768 140.295C124.118 139.944 124.395 139.527 124.581 139.067C124.766 138.608 124.857 138.116 124.849 137.62C124.851 136.741 124.51 135.896 123.9 135.264C123.289 134.632 122.457 134.262 121.579 134.233Z" fill="#111827"/>
</g>
<defs>
<clipPath id="clip0_5966_13538">
<rect width="150.523" height="136.839" fill="white" transform="translate(29.4767 35.5303)"/>
</clipPath>
<clipPath id="clip1_5966_13538">
<rect width="150.523" height="136.839" fill="white" transform="translate(20 27)"/>
</clipPath>
</defs>
</svg>
